G04 #@! TF.FileFunction,Copper,L2,Bot,Signal*
%FSLAX46Y46*%
G04 Gerber Fmt 4.6, Leading zero omitted, Abs format (unit mm)*
G04 Created by KiCad (PCBNEW 4.0.6) date Sun Jun 17 22:16:41 2018*
%MOMM*%
%LPD*%
G01*
G04 APERTURE LIST*
%ADD10C,0.100000*%
%ADD11R,1.700000X1.700000*%
%ADD12O,1.700000X1.700000*%
%ADD13C,0.254000*%
G04 APERTURE END LIST*
D10*
D11*
X137160000Y-109220000D03*
D12*
X137160000Y-106680000D03*
X137160000Y-104140000D03*
X137160000Y-101600000D03*
X137160000Y-99060000D03*
X137160000Y-96520000D03*
X137160000Y-93980000D03*
X137160000Y-91440000D03*
X137160000Y-88900000D03*
D11*
X160020000Y-109220000D03*
D12*
X160020000Y-106680000D03*
X160020000Y-104140000D03*
X160020000Y-101600000D03*
X160020000Y-99060000D03*
X160020000Y-96520000D03*
X160020000Y-93980000D03*
X160020000Y-91440000D03*
X160020000Y-88900000D03*
D13*
G36*
X160714989Y-87222152D02*
X161304170Y-87615830D01*
X161697848Y-88205011D01*
X161850000Y-88969931D01*
X161850000Y-98933000D01*
X161508831Y-98933000D01*
X161421054Y-98491715D01*
X161099147Y-98009946D01*
X160769974Y-97790000D01*
X161099147Y-97570054D01*
X161421054Y-97088285D01*
X161534093Y-96520000D01*
X161421054Y-95951715D01*
X161099147Y-95469946D01*
X160769974Y-95250000D01*
X161099147Y-95030054D01*
X161421054Y-94548285D01*
X161534093Y-93980000D01*
X161421054Y-93411715D01*
X161099147Y-92929946D01*
X160769974Y-92710000D01*
X161099147Y-92490054D01*
X161421054Y-92008285D01*
X161534093Y-91440000D01*
X161421054Y-90871715D01*
X161099147Y-90389946D01*
X160769974Y-90170000D01*
X161099147Y-89950054D01*
X161421054Y-89468285D01*
X161534093Y-88900000D01*
X161421054Y-88331715D01*
X161099147Y-87849946D01*
X160617378Y-87528039D01*
X160049093Y-87415000D01*
X159990907Y-87415000D01*
X159422622Y-87528039D01*
X158940853Y-87849946D01*
X158618946Y-88331715D01*
X158505907Y-88900000D01*
X158618946Y-89468285D01*
X158940853Y-89950054D01*
X159270026Y-90170000D01*
X158940853Y-90389946D01*
X158618946Y-90871715D01*
X158505907Y-91440000D01*
X158618946Y-92008285D01*
X158940853Y-92490054D01*
X159270026Y-92710000D01*
X158940853Y-92929946D01*
X158618946Y-93411715D01*
X158505907Y-93980000D01*
X158618946Y-94548285D01*
X158940853Y-95030054D01*
X159270026Y-95250000D01*
X158940853Y-95469946D01*
X158618946Y-95951715D01*
X158505907Y-96520000D01*
X158618946Y-97088285D01*
X158940853Y-97570054D01*
X159270026Y-97790000D01*
X158940853Y-98009946D01*
X158618946Y-98491715D01*
X158531169Y-98933000D01*
X138648831Y-98933000D01*
X138561054Y-98491715D01*
X138239147Y-98009946D01*
X137909974Y-97790000D01*
X138239147Y-97570054D01*
X138561054Y-97088285D01*
X138674093Y-96520000D01*
X138561054Y-95951715D01*
X138239147Y-95469946D01*
X137898447Y-95242298D01*
X138041358Y-95175183D01*
X138431645Y-94746924D01*
X138601476Y-94336890D01*
X138480155Y-94107000D01*
X137287000Y-94107000D01*
X137287000Y-94127000D01*
X137033000Y-94127000D01*
X137033000Y-94107000D01*
X135839845Y-94107000D01*
X135718524Y-94336890D01*
X135888355Y-94746924D01*
X136278642Y-95175183D01*
X136421553Y-95242298D01*
X136080853Y-95469946D01*
X135758946Y-95951715D01*
X135645907Y-96520000D01*
X135758946Y-97088285D01*
X136080853Y-97570054D01*
X136410026Y-97790000D01*
X136080853Y-98009946D01*
X135758946Y-98491715D01*
X135671169Y-98933000D01*
X135330000Y-98933000D01*
X135330000Y-88969931D01*
X135343910Y-88900000D01*
X135645907Y-88900000D01*
X135758946Y-89468285D01*
X136080853Y-89950054D01*
X136410026Y-90170000D01*
X136080853Y-90389946D01*
X135758946Y-90871715D01*
X135645907Y-91440000D01*
X135758946Y-92008285D01*
X136080853Y-92490054D01*
X136421553Y-92717702D01*
X136278642Y-92784817D01*
X135888355Y-93213076D01*
X135718524Y-93623110D01*
X135839845Y-93853000D01*
X137033000Y-93853000D01*
X137033000Y-93833000D01*
X137287000Y-93833000D01*
X137287000Y-93853000D01*
X138480155Y-93853000D01*
X138601476Y-93623110D01*
X138431645Y-93213076D01*
X138041358Y-92784817D01*
X137898447Y-92717702D01*
X138239147Y-92490054D01*
X138561054Y-92008285D01*
X138674093Y-91440000D01*
X138561054Y-90871715D01*
X138239147Y-90389946D01*
X137909974Y-90170000D01*
X138239147Y-89950054D01*
X138561054Y-89468285D01*
X138674093Y-88900000D01*
X138561054Y-88331715D01*
X138239147Y-87849946D01*
X137757378Y-87528039D01*
X137189093Y-87415000D01*
X137130907Y-87415000D01*
X136562622Y-87528039D01*
X136080853Y-87849946D01*
X135758946Y-88331715D01*
X135645907Y-88900000D01*
X135343910Y-88900000D01*
X135482152Y-88205011D01*
X135875830Y-87615830D01*
X136465011Y-87222152D01*
X137229931Y-87070000D01*
X159950069Y-87070000D01*
X160714989Y-87222152D01*
X160714989Y-87222152D01*
G37*
X160714989Y-87222152D02*
X161304170Y-87615830D01*
X161697848Y-88205011D01*
X161850000Y-88969931D01*
X161850000Y-98933000D01*
X161508831Y-98933000D01*
X161421054Y-98491715D01*
X161099147Y-98009946D01*
X160769974Y-97790000D01*
X161099147Y-97570054D01*
X161421054Y-97088285D01*
X161534093Y-96520000D01*
X161421054Y-95951715D01*
X161099147Y-95469946D01*
X160769974Y-95250000D01*
X161099147Y-95030054D01*
X161421054Y-94548285D01*
X161534093Y-93980000D01*
X161421054Y-93411715D01*
X161099147Y-92929946D01*
X160769974Y-92710000D01*
X161099147Y-92490054D01*
X161421054Y-92008285D01*
X161534093Y-91440000D01*
X161421054Y-90871715D01*
X161099147Y-90389946D01*
X160769974Y-90170000D01*
X161099147Y-89950054D01*
X161421054Y-89468285D01*
X161534093Y-88900000D01*
X161421054Y-88331715D01*
X161099147Y-87849946D01*
X160617378Y-87528039D01*
X160049093Y-87415000D01*
X159990907Y-87415000D01*
X159422622Y-87528039D01*
X158940853Y-87849946D01*
X158618946Y-88331715D01*
X158505907Y-88900000D01*
X158618946Y-89468285D01*
X158940853Y-89950054D01*
X159270026Y-90170000D01*
X158940853Y-90389946D01*
X158618946Y-90871715D01*
X158505907Y-91440000D01*
X158618946Y-92008285D01*
X158940853Y-92490054D01*
X159270026Y-92710000D01*
X158940853Y-92929946D01*
X158618946Y-93411715D01*
X158505907Y-93980000D01*
X158618946Y-94548285D01*
X158940853Y-95030054D01*
X159270026Y-95250000D01*
X158940853Y-95469946D01*
X158618946Y-95951715D01*
X158505907Y-96520000D01*
X158618946Y-97088285D01*
X158940853Y-97570054D01*
X159270026Y-97790000D01*
X158940853Y-98009946D01*
X158618946Y-98491715D01*
X158531169Y-98933000D01*
X138648831Y-98933000D01*
X138561054Y-98491715D01*
X138239147Y-98009946D01*
X137909974Y-97790000D01*
X138239147Y-97570054D01*
X138561054Y-97088285D01*
X138674093Y-96520000D01*
X138561054Y-95951715D01*
X138239147Y-95469946D01*
X137898447Y-95242298D01*
X138041358Y-95175183D01*
X138431645Y-94746924D01*
X138601476Y-94336890D01*
X138480155Y-94107000D01*
X137287000Y-94107000D01*
X137287000Y-94127000D01*
X137033000Y-94127000D01*
X137033000Y-94107000D01*
X135839845Y-94107000D01*
X135718524Y-94336890D01*
X135888355Y-94746924D01*
X136278642Y-95175183D01*
X136421553Y-95242298D01*
X136080853Y-95469946D01*
X135758946Y-95951715D01*
X135645907Y-96520000D01*
X135758946Y-97088285D01*
X136080853Y-97570054D01*
X136410026Y-97790000D01*
X136080853Y-98009946D01*
X135758946Y-98491715D01*
X135671169Y-98933000D01*
X135330000Y-98933000D01*
X135330000Y-88969931D01*
X135343910Y-88900000D01*
X135645907Y-88900000D01*
X135758946Y-89468285D01*
X136080853Y-89950054D01*
X136410026Y-90170000D01*
X136080853Y-90389946D01*
X135758946Y-90871715D01*
X135645907Y-91440000D01*
X135758946Y-92008285D01*
X136080853Y-92490054D01*
X136421553Y-92717702D01*
X136278642Y-92784817D01*
X135888355Y-93213076D01*
X135718524Y-93623110D01*
X135839845Y-93853000D01*
X137033000Y-93853000D01*
X137033000Y-93833000D01*
X137287000Y-93833000D01*
X137287000Y-93853000D01*
X138480155Y-93853000D01*
X138601476Y-93623110D01*
X138431645Y-93213076D01*
X138041358Y-92784817D01*
X137898447Y-92717702D01*
X138239147Y-92490054D01*
X138561054Y-92008285D01*
X138674093Y-91440000D01*
X138561054Y-90871715D01*
X138239147Y-90389946D01*
X137909974Y-90170000D01*
X138239147Y-89950054D01*
X138561054Y-89468285D01*
X138674093Y-88900000D01*
X138561054Y-88331715D01*
X138239147Y-87849946D01*
X137757378Y-87528039D01*
X137189093Y-87415000D01*
X137130907Y-87415000D01*
X136562622Y-87528039D01*
X136080853Y-87849946D01*
X135758946Y-88331715D01*
X135645907Y-88900000D01*
X135343910Y-88900000D01*
X135482152Y-88205011D01*
X135875830Y-87615830D01*
X136465011Y-87222152D01*
X137229931Y-87070000D01*
X159950069Y-87070000D01*
X160714989Y-87222152D01*
M02*
