G04 #@! TF.FileFunction,Legend,Bot*
%FSLAX46Y46*%
G04 Gerber Fmt 4.6, Leading zero omitted, Abs format (unit mm)*
G04 Created by KiCad (PCBNEW 4.0.6) date Sun Jun 17 22:16:41 2018*
%MOMM*%
%LPD*%
G01*
G04 APERTURE LIST*
%ADD10C,0.100000*%
%ADD11C,0.300000*%
G04 APERTURE END LIST*
D10*
D11*
X157384857Y-106572857D02*
X157170571Y-106644286D01*
X157099143Y-106715714D01*
X157027714Y-106858571D01*
X157027714Y-107072857D01*
X157099143Y-107215714D01*
X157170571Y-107287143D01*
X157313429Y-107358571D01*
X157884857Y-107358571D01*
X157884857Y-105858571D01*
X157384857Y-105858571D01*
X157242000Y-105930000D01*
X157170571Y-106001429D01*
X157099143Y-106144286D01*
X157099143Y-106287143D01*
X157170571Y-106430000D01*
X157242000Y-106501429D01*
X157384857Y-106572857D01*
X157884857Y-106572857D01*
X156099143Y-105858571D02*
X155813429Y-105858571D01*
X155670571Y-105930000D01*
X155527714Y-106072857D01*
X155456286Y-106358571D01*
X155456286Y-106858571D01*
X155527714Y-107144286D01*
X155670571Y-107287143D01*
X155813429Y-107358571D01*
X156099143Y-107358571D01*
X156242000Y-107287143D01*
X156384857Y-107144286D01*
X156456286Y-106858571D01*
X156456286Y-106358571D01*
X156384857Y-106072857D01*
X156242000Y-105930000D01*
X156099143Y-105858571D01*
X154527714Y-105858571D02*
X154242000Y-105858571D01*
X154099142Y-105930000D01*
X153956285Y-106072857D01*
X153884857Y-106358571D01*
X153884857Y-106858571D01*
X153956285Y-107144286D01*
X154099142Y-107287143D01*
X154242000Y-107358571D01*
X154527714Y-107358571D01*
X154670571Y-107287143D01*
X154813428Y-107144286D01*
X154884857Y-106858571D01*
X154884857Y-106358571D01*
X154813428Y-106072857D01*
X154670571Y-105930000D01*
X154527714Y-105858571D01*
X153456285Y-105858571D02*
X152599142Y-105858571D01*
X153027713Y-107358571D02*
X153027713Y-105858571D01*
X151813428Y-105858571D02*
X151670571Y-105858571D01*
X151527714Y-105930000D01*
X151456285Y-106001429D01*
X151384856Y-106144286D01*
X151313428Y-106430000D01*
X151313428Y-106787143D01*
X151384856Y-107072857D01*
X151456285Y-107215714D01*
X151527714Y-107287143D01*
X151670571Y-107358571D01*
X151813428Y-107358571D01*
X151956285Y-107287143D01*
X152027714Y-107215714D01*
X152099142Y-107072857D01*
X152170571Y-106787143D01*
X152170571Y-106430000D01*
X152099142Y-106144286D01*
X152027714Y-106001429D01*
X151956285Y-105930000D01*
X151813428Y-105858571D01*
X157027714Y-105072571D02*
X157527714Y-104358286D01*
X157884857Y-105072571D02*
X157884857Y-103572571D01*
X157313429Y-103572571D01*
X157170571Y-103644000D01*
X157099143Y-103715429D01*
X157027714Y-103858286D01*
X157027714Y-104072571D01*
X157099143Y-104215429D01*
X157170571Y-104286857D01*
X157313429Y-104358286D01*
X157884857Y-104358286D01*
X156384857Y-104286857D02*
X155884857Y-104286857D01*
X155670571Y-105072571D02*
X156384857Y-105072571D01*
X156384857Y-103572571D01*
X155670571Y-103572571D01*
X155099143Y-105001143D02*
X154884857Y-105072571D01*
X154527714Y-105072571D01*
X154384857Y-105001143D01*
X154313428Y-104929714D01*
X154242000Y-104786857D01*
X154242000Y-104644000D01*
X154313428Y-104501143D01*
X154384857Y-104429714D01*
X154527714Y-104358286D01*
X154813428Y-104286857D01*
X154956286Y-104215429D01*
X155027714Y-104144000D01*
X155099143Y-104001143D01*
X155099143Y-103858286D01*
X155027714Y-103715429D01*
X154956286Y-103644000D01*
X154813428Y-103572571D01*
X154456286Y-103572571D01*
X154242000Y-103644000D01*
X153599143Y-104286857D02*
X153099143Y-104286857D01*
X152884857Y-105072571D02*
X153599143Y-105072571D01*
X153599143Y-103572571D01*
X152884857Y-103572571D01*
X152456286Y-103572571D02*
X151599143Y-103572571D01*
X152027714Y-105072571D02*
X152027714Y-103572571D01*
X158242000Y-103314000D02*
X151456286Y-103314000D01*
X158099143Y-108398571D02*
X157599143Y-109898571D01*
X157099143Y-108398571D01*
X156599143Y-109898571D02*
X156599143Y-108398571D01*
X155884857Y-109898571D02*
X155884857Y-108398571D01*
X155027714Y-109898571D01*
X155027714Y-108398571D01*
X157027714Y-102389714D02*
X157099143Y-102461143D01*
X157313429Y-102532571D01*
X157456286Y-102532571D01*
X157670571Y-102461143D01*
X157813429Y-102318286D01*
X157884857Y-102175429D01*
X157956286Y-101889714D01*
X157956286Y-101675429D01*
X157884857Y-101389714D01*
X157813429Y-101246857D01*
X157670571Y-101104000D01*
X157456286Y-101032571D01*
X157313429Y-101032571D01*
X157099143Y-101104000D01*
X157027714Y-101175429D01*
X156599143Y-101032571D02*
X155742000Y-101032571D01*
X156170571Y-102532571D02*
X156170571Y-101032571D01*
X155313429Y-102461143D02*
X155099143Y-102532571D01*
X154742000Y-102532571D01*
X154599143Y-102461143D01*
X154527714Y-102389714D01*
X154456286Y-102246857D01*
X154456286Y-102104000D01*
X154527714Y-101961143D01*
X154599143Y-101889714D01*
X154742000Y-101818286D01*
X155027714Y-101746857D01*
X155170572Y-101675429D01*
X155242000Y-101604000D01*
X155313429Y-101461143D01*
X155313429Y-101318286D01*
X155242000Y-101175429D01*
X155170572Y-101104000D01*
X155027714Y-101032571D01*
X154670572Y-101032571D01*
X154456286Y-101104000D01*
X158242000Y-100774000D02*
X154170572Y-100774000D01*
X157027714Y-99992571D02*
X157527714Y-99278286D01*
X157884857Y-99992571D02*
X157884857Y-98492571D01*
X157313429Y-98492571D01*
X157170571Y-98564000D01*
X157099143Y-98635429D01*
X157027714Y-98778286D01*
X157027714Y-98992571D01*
X157099143Y-99135429D01*
X157170571Y-99206857D01*
X157313429Y-99278286D01*
X157884857Y-99278286D01*
X156599143Y-98492571D02*
X155742000Y-98492571D01*
X156170571Y-99992571D02*
X156170571Y-98492571D01*
X155313429Y-99921143D02*
X155099143Y-99992571D01*
X154742000Y-99992571D01*
X154599143Y-99921143D01*
X154527714Y-99849714D01*
X154456286Y-99706857D01*
X154456286Y-99564000D01*
X154527714Y-99421143D01*
X154599143Y-99349714D01*
X154742000Y-99278286D01*
X155027714Y-99206857D01*
X155170572Y-99135429D01*
X155242000Y-99064000D01*
X155313429Y-98921143D01*
X155313429Y-98778286D01*
X155242000Y-98635429D01*
X155170572Y-98564000D01*
X155027714Y-98492571D01*
X154670572Y-98492571D01*
X154456286Y-98564000D01*
X158242000Y-98234000D02*
X154170572Y-98234000D01*
X157027714Y-97198571D02*
X157527714Y-96484286D01*
X157884857Y-97198571D02*
X157884857Y-95698571D01*
X157313429Y-95698571D01*
X157170571Y-95770000D01*
X157099143Y-95841429D01*
X157027714Y-95984286D01*
X157027714Y-96198571D01*
X157099143Y-96341429D01*
X157170571Y-96412857D01*
X157313429Y-96484286D01*
X157884857Y-96484286D01*
X156527714Y-95698571D02*
X155527714Y-97198571D01*
X155527714Y-95698571D02*
X156527714Y-97198571D01*
X154956286Y-97198571D02*
X154956286Y-95698571D01*
X154599143Y-95698571D01*
X154384858Y-95770000D01*
X154242000Y-95912857D01*
X154170572Y-96055714D01*
X154099143Y-96341429D01*
X154099143Y-96555714D01*
X154170572Y-96841429D01*
X154242000Y-96984286D01*
X154384858Y-97127143D01*
X154599143Y-97198571D01*
X154956286Y-97198571D01*
X158099143Y-93158571D02*
X157242000Y-93158571D01*
X157670571Y-94658571D02*
X157670571Y-93158571D01*
X156884857Y-93158571D02*
X155884857Y-94658571D01*
X155884857Y-93158571D02*
X156884857Y-94658571D01*
X155313429Y-94658571D02*
X155313429Y-93158571D01*
X154956286Y-93158571D01*
X154742001Y-93230000D01*
X154599143Y-93372857D01*
X154527715Y-93515714D01*
X154456286Y-93801429D01*
X154456286Y-94015714D01*
X154527715Y-94301429D01*
X154599143Y-94444286D01*
X154742001Y-94587143D01*
X154956286Y-94658571D01*
X155313429Y-94658571D01*
X157170571Y-92118571D02*
X157884857Y-92118571D01*
X157884857Y-90618571D01*
X156670571Y-92118571D02*
X156670571Y-90618571D01*
X156099143Y-90618571D01*
X155956285Y-90690000D01*
X155884857Y-90761429D01*
X155813428Y-90904286D01*
X155813428Y-91118571D01*
X155884857Y-91261429D01*
X155956285Y-91332857D01*
X156099143Y-91404286D01*
X156670571Y-91404286D01*
X154884857Y-90618571D02*
X154599143Y-90618571D01*
X154456285Y-90690000D01*
X154313428Y-90832857D01*
X154242000Y-91118571D01*
X154242000Y-91618571D01*
X154313428Y-91904286D01*
X154456285Y-92047143D01*
X154599143Y-92118571D01*
X154884857Y-92118571D01*
X155027714Y-92047143D01*
X155170571Y-91904286D01*
X155242000Y-91618571D01*
X155242000Y-91118571D01*
X155170571Y-90832857D01*
X155027714Y-90690000D01*
X154884857Y-90618571D01*
X157099143Y-88150000D02*
X157242000Y-88078571D01*
X157456286Y-88078571D01*
X157670571Y-88150000D01*
X157813429Y-88292857D01*
X157884857Y-88435714D01*
X157956286Y-88721429D01*
X157956286Y-88935714D01*
X157884857Y-89221429D01*
X157813429Y-89364286D01*
X157670571Y-89507143D01*
X157456286Y-89578571D01*
X157313429Y-89578571D01*
X157099143Y-89507143D01*
X157027714Y-89435714D01*
X157027714Y-88935714D01*
X157313429Y-88935714D01*
X156384857Y-89578571D02*
X156384857Y-88078571D01*
X155813429Y-88078571D01*
X155670571Y-88150000D01*
X155599143Y-88221429D01*
X155527714Y-88364286D01*
X155527714Y-88578571D01*
X155599143Y-88721429D01*
X155670571Y-88792857D01*
X155813429Y-88864286D01*
X156384857Y-88864286D01*
X154884857Y-89578571D02*
X154884857Y-88078571D01*
X153884857Y-88078571D02*
X153599143Y-88078571D01*
X153456285Y-88150000D01*
X153313428Y-88292857D01*
X153242000Y-88578571D01*
X153242000Y-89078571D01*
X153313428Y-89364286D01*
X153456285Y-89507143D01*
X153599143Y-89578571D01*
X153884857Y-89578571D01*
X154027714Y-89507143D01*
X154170571Y-89364286D01*
X154242000Y-89078571D01*
X154242000Y-88578571D01*
X154170571Y-88292857D01*
X154027714Y-88150000D01*
X153884857Y-88078571D01*
X152384856Y-88721429D02*
X152527714Y-88650000D01*
X152599142Y-88578571D01*
X152670571Y-88435714D01*
X152670571Y-88364286D01*
X152599142Y-88221429D01*
X152527714Y-88150000D01*
X152384856Y-88078571D01*
X152099142Y-88078571D01*
X151956285Y-88150000D01*
X151884856Y-88221429D01*
X151813428Y-88364286D01*
X151813428Y-88435714D01*
X151884856Y-88578571D01*
X151956285Y-88650000D01*
X152099142Y-88721429D01*
X152384856Y-88721429D01*
X152527714Y-88792857D01*
X152599142Y-88864286D01*
X152670571Y-89007143D01*
X152670571Y-89292857D01*
X152599142Y-89435714D01*
X152527714Y-89507143D01*
X152384856Y-89578571D01*
X152099142Y-89578571D01*
X151956285Y-89507143D01*
X151884856Y-89435714D01*
X151813428Y-89292857D01*
X151813428Y-89007143D01*
X151884856Y-88864286D01*
X151956285Y-88792857D01*
X152099142Y-88721429D01*
X144509429Y-88150000D02*
X144652286Y-88078571D01*
X144866572Y-88078571D01*
X145080857Y-88150000D01*
X145223715Y-88292857D01*
X145295143Y-88435714D01*
X145366572Y-88721429D01*
X145366572Y-88935714D01*
X145295143Y-89221429D01*
X145223715Y-89364286D01*
X145080857Y-89507143D01*
X144866572Y-89578571D01*
X144723715Y-89578571D01*
X144509429Y-89507143D01*
X144438000Y-89435714D01*
X144438000Y-88935714D01*
X144723715Y-88935714D01*
X143795143Y-89578571D02*
X143795143Y-88078571D01*
X143223715Y-88078571D01*
X143080857Y-88150000D01*
X143009429Y-88221429D01*
X142938000Y-88364286D01*
X142938000Y-88578571D01*
X143009429Y-88721429D01*
X143080857Y-88792857D01*
X143223715Y-88864286D01*
X143795143Y-88864286D01*
X142295143Y-89578571D02*
X142295143Y-88078571D01*
X141295143Y-88078571D02*
X141009429Y-88078571D01*
X140866571Y-88150000D01*
X140723714Y-88292857D01*
X140652286Y-88578571D01*
X140652286Y-89078571D01*
X140723714Y-89364286D01*
X140866571Y-89507143D01*
X141009429Y-89578571D01*
X141295143Y-89578571D01*
X141438000Y-89507143D01*
X141580857Y-89364286D01*
X141652286Y-89078571D01*
X141652286Y-88578571D01*
X141580857Y-88292857D01*
X141438000Y-88150000D01*
X141295143Y-88078571D01*
X140152285Y-88078571D02*
X139152285Y-88078571D01*
X139795142Y-89578571D01*
X141937999Y-92118571D02*
X142795142Y-92118571D01*
X142366570Y-92118571D02*
X142366570Y-90618571D01*
X142509427Y-90832857D01*
X142652285Y-90975714D01*
X142795142Y-91047143D01*
X141509428Y-90618571D02*
X141009428Y-92118571D01*
X140509428Y-90618571D01*
X139795142Y-91261429D02*
X139938000Y-91190000D01*
X140009428Y-91118571D01*
X140080857Y-90975714D01*
X140080857Y-90904286D01*
X140009428Y-90761429D01*
X139938000Y-90690000D01*
X139795142Y-90618571D01*
X139509428Y-90618571D01*
X139366571Y-90690000D01*
X139295142Y-90761429D01*
X139223714Y-90904286D01*
X139223714Y-90975714D01*
X139295142Y-91118571D01*
X139366571Y-91190000D01*
X139509428Y-91261429D01*
X139795142Y-91261429D01*
X139938000Y-91332857D01*
X140009428Y-91404286D01*
X140080857Y-91547143D01*
X140080857Y-91832857D01*
X140009428Y-91975714D01*
X139938000Y-92047143D01*
X139795142Y-92118571D01*
X139509428Y-92118571D01*
X139366571Y-92047143D01*
X139295142Y-91975714D01*
X139223714Y-91832857D01*
X139223714Y-91547143D01*
X139295142Y-91404286D01*
X139366571Y-91332857D01*
X139509428Y-91261429D01*
X144509429Y-95770000D02*
X144652286Y-95698571D01*
X144866572Y-95698571D01*
X145080857Y-95770000D01*
X145223715Y-95912857D01*
X145295143Y-96055714D01*
X145366572Y-96341429D01*
X145366572Y-96555714D01*
X145295143Y-96841429D01*
X145223715Y-96984286D01*
X145080857Y-97127143D01*
X144866572Y-97198571D01*
X144723715Y-97198571D01*
X144509429Y-97127143D01*
X144438000Y-97055714D01*
X144438000Y-96555714D01*
X144723715Y-96555714D01*
X143795143Y-97198571D02*
X143795143Y-95698571D01*
X143223715Y-95698571D01*
X143080857Y-95770000D01*
X143009429Y-95841429D01*
X142938000Y-95984286D01*
X142938000Y-96198571D01*
X143009429Y-96341429D01*
X143080857Y-96412857D01*
X143223715Y-96484286D01*
X143795143Y-96484286D01*
X142295143Y-97198571D02*
X142295143Y-95698571D01*
X141295143Y-95698571D02*
X141009429Y-95698571D01*
X140866571Y-95770000D01*
X140723714Y-95912857D01*
X140652286Y-96198571D01*
X140652286Y-96698571D01*
X140723714Y-96984286D01*
X140866571Y-97127143D01*
X141009429Y-97198571D01*
X141295143Y-97198571D01*
X141438000Y-97127143D01*
X141580857Y-96984286D01*
X141652286Y-96698571D01*
X141652286Y-96198571D01*
X141580857Y-95912857D01*
X141438000Y-95770000D01*
X141295143Y-95698571D01*
X140080857Y-95841429D02*
X140009428Y-95770000D01*
X139866571Y-95698571D01*
X139509428Y-95698571D01*
X139366571Y-95770000D01*
X139295142Y-95841429D01*
X139223714Y-95984286D01*
X139223714Y-96127143D01*
X139295142Y-96341429D01*
X140152285Y-97198571D01*
X139223714Y-97198571D01*
X144509429Y-98310000D02*
X144652286Y-98238571D01*
X144866572Y-98238571D01*
X145080857Y-98310000D01*
X145223715Y-98452857D01*
X145295143Y-98595714D01*
X145366572Y-98881429D01*
X145366572Y-99095714D01*
X145295143Y-99381429D01*
X145223715Y-99524286D01*
X145080857Y-99667143D01*
X144866572Y-99738571D01*
X144723715Y-99738571D01*
X144509429Y-99667143D01*
X144438000Y-99595714D01*
X144438000Y-99095714D01*
X144723715Y-99095714D01*
X143795143Y-99738571D02*
X143795143Y-98238571D01*
X143223715Y-98238571D01*
X143080857Y-98310000D01*
X143009429Y-98381429D01*
X142938000Y-98524286D01*
X142938000Y-98738571D01*
X143009429Y-98881429D01*
X143080857Y-98952857D01*
X143223715Y-99024286D01*
X143795143Y-99024286D01*
X142295143Y-99738571D02*
X142295143Y-98238571D01*
X141295143Y-98238571D02*
X141009429Y-98238571D01*
X140866571Y-98310000D01*
X140723714Y-98452857D01*
X140652286Y-98738571D01*
X140652286Y-99238571D01*
X140723714Y-99524286D01*
X140866571Y-99667143D01*
X141009429Y-99738571D01*
X141295143Y-99738571D01*
X141438000Y-99667143D01*
X141580857Y-99524286D01*
X141652286Y-99238571D01*
X141652286Y-98738571D01*
X141580857Y-98452857D01*
X141438000Y-98310000D01*
X141295143Y-98238571D01*
X140152285Y-98238571D02*
X139223714Y-98238571D01*
X139723714Y-98810000D01*
X139509428Y-98810000D01*
X139366571Y-98881429D01*
X139295142Y-98952857D01*
X139223714Y-99095714D01*
X139223714Y-99452857D01*
X139295142Y-99595714D01*
X139366571Y-99667143D01*
X139509428Y-99738571D01*
X139938000Y-99738571D01*
X140080857Y-99667143D01*
X140152285Y-99595714D01*
X144509429Y-100850000D02*
X144652286Y-100778571D01*
X144866572Y-100778571D01*
X145080857Y-100850000D01*
X145223715Y-100992857D01*
X145295143Y-101135714D01*
X145366572Y-101421429D01*
X145366572Y-101635714D01*
X145295143Y-101921429D01*
X145223715Y-102064286D01*
X145080857Y-102207143D01*
X144866572Y-102278571D01*
X144723715Y-102278571D01*
X144509429Y-102207143D01*
X144438000Y-102135714D01*
X144438000Y-101635714D01*
X144723715Y-101635714D01*
X143795143Y-102278571D02*
X143795143Y-100778571D01*
X143223715Y-100778571D01*
X143080857Y-100850000D01*
X143009429Y-100921429D01*
X142938000Y-101064286D01*
X142938000Y-101278571D01*
X143009429Y-101421429D01*
X143080857Y-101492857D01*
X143223715Y-101564286D01*
X143795143Y-101564286D01*
X142295143Y-102278571D02*
X142295143Y-100778571D01*
X141295143Y-100778571D02*
X141009429Y-100778571D01*
X140866571Y-100850000D01*
X140723714Y-100992857D01*
X140652286Y-101278571D01*
X140652286Y-101778571D01*
X140723714Y-102064286D01*
X140866571Y-102207143D01*
X141009429Y-102278571D01*
X141295143Y-102278571D01*
X141438000Y-102207143D01*
X141580857Y-102064286D01*
X141652286Y-101778571D01*
X141652286Y-101278571D01*
X141580857Y-100992857D01*
X141438000Y-100850000D01*
X141295143Y-100778571D01*
X139366571Y-101278571D02*
X139366571Y-102278571D01*
X139723714Y-100707143D02*
X140080857Y-101778571D01*
X139152285Y-101778571D01*
X144509429Y-103390000D02*
X144652286Y-103318571D01*
X144866572Y-103318571D01*
X145080857Y-103390000D01*
X145223715Y-103532857D01*
X145295143Y-103675714D01*
X145366572Y-103961429D01*
X145366572Y-104175714D01*
X145295143Y-104461429D01*
X145223715Y-104604286D01*
X145080857Y-104747143D01*
X144866572Y-104818571D01*
X144723715Y-104818571D01*
X144509429Y-104747143D01*
X144438000Y-104675714D01*
X144438000Y-104175714D01*
X144723715Y-104175714D01*
X143795143Y-104818571D02*
X143795143Y-103318571D01*
X143223715Y-103318571D01*
X143080857Y-103390000D01*
X143009429Y-103461429D01*
X142938000Y-103604286D01*
X142938000Y-103818571D01*
X143009429Y-103961429D01*
X143080857Y-104032857D01*
X143223715Y-104104286D01*
X143795143Y-104104286D01*
X142295143Y-104818571D02*
X142295143Y-103318571D01*
X141295143Y-103318571D02*
X141009429Y-103318571D01*
X140866571Y-103390000D01*
X140723714Y-103532857D01*
X140652286Y-103818571D01*
X140652286Y-104318571D01*
X140723714Y-104604286D01*
X140866571Y-104747143D01*
X141009429Y-104818571D01*
X141295143Y-104818571D01*
X141438000Y-104747143D01*
X141580857Y-104604286D01*
X141652286Y-104318571D01*
X141652286Y-103818571D01*
X141580857Y-103532857D01*
X141438000Y-103390000D01*
X141295143Y-103318571D01*
X139295142Y-103318571D02*
X140009428Y-103318571D01*
X140080857Y-104032857D01*
X140009428Y-103961429D01*
X139866571Y-103890000D01*
X139509428Y-103890000D01*
X139366571Y-103961429D01*
X139295142Y-104032857D01*
X139223714Y-104175714D01*
X139223714Y-104532857D01*
X139295142Y-104675714D01*
X139366571Y-104747143D01*
X139509428Y-104818571D01*
X139866571Y-104818571D01*
X140009428Y-104747143D01*
X140080857Y-104675714D01*
X144509429Y-105676000D02*
X144652286Y-105604571D01*
X144866572Y-105604571D01*
X145080857Y-105676000D01*
X145223715Y-105818857D01*
X145295143Y-105961714D01*
X145366572Y-106247429D01*
X145366572Y-106461714D01*
X145295143Y-106747429D01*
X145223715Y-106890286D01*
X145080857Y-107033143D01*
X144866572Y-107104571D01*
X144723715Y-107104571D01*
X144509429Y-107033143D01*
X144438000Y-106961714D01*
X144438000Y-106461714D01*
X144723715Y-106461714D01*
X143795143Y-107104571D02*
X143795143Y-105604571D01*
X143223715Y-105604571D01*
X143080857Y-105676000D01*
X143009429Y-105747429D01*
X142938000Y-105890286D01*
X142938000Y-106104571D01*
X143009429Y-106247429D01*
X143080857Y-106318857D01*
X143223715Y-106390286D01*
X143795143Y-106390286D01*
X142295143Y-107104571D02*
X142295143Y-105604571D01*
X141295143Y-105604571D02*
X141009429Y-105604571D01*
X140866571Y-105676000D01*
X140723714Y-105818857D01*
X140652286Y-106104571D01*
X140652286Y-106604571D01*
X140723714Y-106890286D01*
X140866571Y-107033143D01*
X141009429Y-107104571D01*
X141295143Y-107104571D01*
X141438000Y-107033143D01*
X141580857Y-106890286D01*
X141652286Y-106604571D01*
X141652286Y-106104571D01*
X141580857Y-105818857D01*
X141438000Y-105676000D01*
X141295143Y-105604571D01*
X139366571Y-105604571D02*
X139652285Y-105604571D01*
X139795142Y-105676000D01*
X139866571Y-105747429D01*
X140009428Y-105961714D01*
X140080857Y-106247429D01*
X140080857Y-106818857D01*
X140009428Y-106961714D01*
X139938000Y-107033143D01*
X139795142Y-107104571D01*
X139509428Y-107104571D01*
X139366571Y-107033143D01*
X139295142Y-106961714D01*
X139223714Y-106818857D01*
X139223714Y-106461714D01*
X139295142Y-106318857D01*
X139366571Y-106247429D01*
X139509428Y-106176000D01*
X139795142Y-106176000D01*
X139938000Y-106247429D01*
X140009428Y-106318857D01*
X140080857Y-106461714D01*
X142366572Y-108470000D02*
X142509429Y-108398571D01*
X142723715Y-108398571D01*
X142938000Y-108470000D01*
X143080858Y-108612857D01*
X143152286Y-108755714D01*
X143223715Y-109041429D01*
X143223715Y-109255714D01*
X143152286Y-109541429D01*
X143080858Y-109684286D01*
X142938000Y-109827143D01*
X142723715Y-109898571D01*
X142580858Y-109898571D01*
X142366572Y-109827143D01*
X142295143Y-109755714D01*
X142295143Y-109255714D01*
X142580858Y-109255714D01*
X141652286Y-109898571D02*
X141652286Y-108398571D01*
X140795143Y-109898571D01*
X140795143Y-108398571D01*
X140080857Y-109898571D02*
X140080857Y-108398571D01*
X139723714Y-108398571D01*
X139509429Y-108470000D01*
X139366571Y-108612857D01*
X139295143Y-108755714D01*
X139223714Y-109041429D01*
X139223714Y-109255714D01*
X139295143Y-109541429D01*
X139366571Y-109684286D01*
X139509429Y-109827143D01*
X139723714Y-109898571D01*
X140080857Y-109898571D01*
X144509429Y-93230000D02*
X144652286Y-93158571D01*
X144866572Y-93158571D01*
X145080857Y-93230000D01*
X145223715Y-93372857D01*
X145295143Y-93515714D01*
X145366572Y-93801429D01*
X145366572Y-94015714D01*
X145295143Y-94301429D01*
X145223715Y-94444286D01*
X145080857Y-94587143D01*
X144866572Y-94658571D01*
X144723715Y-94658571D01*
X144509429Y-94587143D01*
X144438000Y-94515714D01*
X144438000Y-94015714D01*
X144723715Y-94015714D01*
X143795143Y-94658571D02*
X143795143Y-93158571D01*
X143223715Y-93158571D01*
X143080857Y-93230000D01*
X143009429Y-93301429D01*
X142938000Y-93444286D01*
X142938000Y-93658571D01*
X143009429Y-93801429D01*
X143080857Y-93872857D01*
X143223715Y-93944286D01*
X143795143Y-93944286D01*
X142295143Y-94658571D02*
X142295143Y-93158571D01*
X141295143Y-93158571D02*
X141009429Y-93158571D01*
X140866571Y-93230000D01*
X140723714Y-93372857D01*
X140652286Y-93658571D01*
X140652286Y-94158571D01*
X140723714Y-94444286D01*
X140866571Y-94587143D01*
X141009429Y-94658571D01*
X141295143Y-94658571D01*
X141438000Y-94587143D01*
X141580857Y-94444286D01*
X141652286Y-94158571D01*
X141652286Y-93658571D01*
X141580857Y-93372857D01*
X141438000Y-93230000D01*
X141295143Y-93158571D01*
X139223714Y-94658571D02*
X140080857Y-94658571D01*
X139652285Y-94658571D02*
X139652285Y-93158571D01*
X139795142Y-93372857D01*
X139938000Y-93515714D01*
X140080857Y-93587143D01*
M02*
